<svg xmlns="http://www.w3.org/2000/svg" viewBox="0 0 1000 1000" aria-label="서울특별시 행정구역">
  <path id="11250" aria-label="강동구" d="M826.825,514.124L835.29,515.046L841.576,507.221L848.358,502.527L875.606,490.051L907.039,480.335L920.689,474.36L948.255,457.185L956.618,457.954L969.982,457.004L976.999,453.657L973.29,463.817L974.936,472.741L979.111,479.187L982.11,487.935L983.205,498.312L988.835,512.316L987.471,536.313L991.602,539.775L990.531,550.42L992,558.396L987.801,558.972L981.96,554.737L973.833,558.97L966.14,557.893L951.717,561.817L944.675,559.55L922.002,592.241L921.326,606.077L912.301,617.05L908.238,627.607L903.769,627.848L901.256,635.477L900.978,642.762L897.667,641.327L841.019,609.774L844.037,603.145L850.644,578.8L839.564,571.676L818.548,564.143L824.446,552.054L828.721,534.894L828.738,519.264Z" />
  <path id="11240" aria-label="송파구" d="M718.352,618.679L732.211,622.738L743.325,623.146L759.094,620.639L777.829,613.624L793.148,611.083L802.474,592.217L818.548,564.143L839.564,571.676L850.644,578.8L844.037,603.145L841.019,609.774L897.667,641.327L900.978,642.762L900.918,646.824L896.039,650.551L892.775,656.509L890.062,667.567L892.798,676.876L902.444,682.662L908.205,683.351L913.935,679.676L918.106,683.698L934.218,688.092L940.406,692.302L936.889,702.437L937.279,709.51L933.136,720.943L929.654,725.848L917.921,729.665L912.152,751.552L912.204,756.945L905.323,762.336L894.937,762.696L887.792,771.859L876.491,767.275L868.261,766.008L868.87,776.874L879.298,784.095L872.882,788.17L863.623,788.156L855.266,783.325L855.284,790.776L848.483,796.142L848.502,790.149L844.355,780.838L823.559,745.092L824.924,741.837L817.359,727.088L809.418,718.493L801.275,712.211L788.387,705.403L745.237,691.157L735.781,688.842L725.042,678.089L718.814,633.805L717.258,630.989Z" />
  <path id="11230" aria-label="강남구" d="M693.904,606.758L718.352,618.679L717.258,630.989L718.814,633.805L725.042,678.089L735.781,688.842L745.237,691.157L788.387,705.403L801.275,712.211L809.418,718.493L817.359,727.088L824.924,741.837L823.559,745.092L844.355,780.838L848.502,790.149L848.483,796.142L837.117,805.155L835.439,815.754L827.205,811.485L824.322,806.966L810.885,804.069L804.288,812.699L791.853,815.162L787.392,807.346L784.332,800.752L768.504,786.91L759.579,773.448L759.117,765.643L744.7,767.791L734.7,773.488L731.736,767.736L725.98,766.677L723.718,770.443L707.933,773.534L705.768,785.044L694.331,786.639L687.422,785.717L666.77,760.364L658.106,735.814L641.099,738.795L635.228,724.018L609.203,655.174L603.867,632.207L601.022,625.185L588.78,610.494L610.079,588.909L619.327,581.41L631.087,577.802L668.963,596.669L671.245,591.619L676.246,596.524Z" />
  <path id="11220" aria-label="서초구" d="M588.78,610.494L601.022,625.185L603.867,632.207L609.203,655.174L635.228,724.018L641.099,738.795L658.106,735.814L666.77,760.364L687.422,785.717L694.331,786.639L705.768,785.044L707.933,773.534L723.718,770.443L725.98,766.677L731.736,767.736L734.7,773.488L744.7,767.791L759.117,765.643L759.579,773.448L768.504,786.91L784.332,800.752L787.392,807.346L783.416,815.198L784.555,821.786L781.118,823.026L778.676,830.23L774.469,832.828L768.699,843.628L768.676,853.718L758.721,858.998L754.45,867.284L736.686,863.673L729.379,865.518L730.126,870.822L736.215,874.355L734.737,879.418L729.036,882.694L726.924,893.916L728.486,897.62L717.844,900.068L715.322,903.386L704.491,900.146L696.995,900.055L683.491,904.713L678.141,899.534L672.588,898.018L669.97,890.136L654.496,875.277L645.213,873.337L644.154,867.359L650.736,856.84L649.047,851.898L649.752,843.076L645.887,836.543L648.022,827.55L647.21,821.572L642.828,816.964L639.956,807.204L642.558,800.188L634.407,794.476L622.26,816.002L609.158,822.942L598.898,825.308L586.878,825.25L582.049,819.376L575.593,805.136L573.292,803.812L568.914,790.078L556.125,789.762L552.105,791.684L554.328,799.907L553.415,805.114L544.884,807.409L534.103,817.112L531.39,810.373L533.029,795.219L529.969,788.328L524.477,782.712L519.797,773.747L517.537,762.21L520.655,703.793L525.773,693.044L516.533,686.254L514.572,681.171L514.154,657.116L519.675,653L531.19,652.482L535.888,655.367L556.205,643.518L569.643,634.614L575.162,629.075L579.962,619.448Z" />
  <path id="11210" aria-label="관악구" d="M517.537,762.21L519.797,773.747L524.477,782.712L529.969,788.328L533.029,795.219L531.39,810.373L534.103,817.112L520.279,821.28L515.807,832.277L505.011,839.823L499.677,848.324L492.735,848.521L477.164,854.306L476.408,864.356L474.097,867.693L465.357,868.561L463.149,872.165L450.743,872.173L432.154,878.002L425.181,878.024L418.421,882.793L415.707,878.437L416.151,869.911L409.412,861.274L398.668,853.92L398.578,846.701L393.293,840.642L380.205,828.094L378.432,821.269L365.156,818.224L360.203,818.357L359.362,807.109L355.923,799.81L358.015,795.934L353.086,792.126L345.032,774.175L350.883,771.176L353.822,761.288L347.987,757.648L348.548,749.508L327.265,754.317L324.43,751.3L333.269,737.542L339.705,737.535L356.833,730.989L365.836,724.428L382.832,722.787L388.241,710.453L390.878,707.896L399.454,713.07L407.06,713.576L411.158,716.286L423.6,716.182L436.523,710.652L447.677,715.696L452.37,719.699L459.064,718.074L469.611,712.64L468.72,720.2L472.299,730.899L469.954,741.992L491.463,766.048L506.582,762.481Z" />
  <path id="11200" aria-label="동작구" d="M514.154,657.116L514.572,681.171L516.533,686.254L525.773,693.044L520.655,703.793L517.537,762.21L506.582,762.481L491.463,766.048L469.954,741.992L472.299,730.899L468.72,720.2L469.611,712.64L459.064,718.074L452.37,719.699L447.677,715.696L436.523,710.652L423.6,716.182L411.158,716.286L407.06,713.576L399.454,713.07L390.878,707.896L388.241,710.453L382.832,722.787L365.836,724.428L356.833,730.989L339.705,737.535L333.269,737.542L355.137,703.755L371.975,699.876L375.428,686.859L385.417,655.502L389.426,654.502L386.855,645.314L401.964,646.632L424.404,641.356L444.22,633.665L451.319,641.044L460.689,647.688L477.617,655.157Z" />
  <path id="11190" aria-label="영등포구" d="M301.585,544.259L327.37,562.167L340.259,568.484L394.426,583.467L407.308,585.567L428.153,605.816L435.535,612.839L438.431,623.122L444.22,633.665L424.404,641.356L401.964,646.632L386.855,645.314L389.426,654.502L385.417,655.502L375.428,686.859L371.975,699.876L355.137,703.755L333.269,737.542L326.878,735.63L317.499,725.471L310.907,702.77L310.166,683.747L311.229,670.87L303.208,658.774L277.404,643.316L278.226,627.234L279.843,618.245L282.727,614.986L295.003,608.072L298.592,601.951L302.265,602.963L305.749,594.78L305.219,586.798L295.794,564.346L293.145,563.765L291.051,555.735Z" />
  <path id="11180" aria-label="금천구" d="M324.43,751.3L327.265,754.317L348.548,749.508L347.987,757.648L353.822,761.288L350.883,771.176L345.032,774.175L353.086,792.126L358.015,795.934L355.923,799.81L359.362,807.109L360.203,818.357L365.156,818.224L378.432,821.269L380.205,828.094L393.293,840.642L380.886,851.325L375.287,858.615L372.477,867.009L367.902,871.136L359.368,870.722L352.377,878.077L346.22,889.136L332.226,888.276L332.061,882.875L324.23,876.334L322.675,872.879L323.236,861.589L321.506,857.047L315.31,853.9L316.348,846.186L311.741,833.392L308.343,835.527L300.94,833.054L299.915,825.872L293.277,822.286L293.162,813.241L298.986,804.256L278.397,773.71L270.781,759.547L263.232,738.487L266.277,736.37L275.586,732.795L280.192,734.631L292.615,744.737L299.991,753.435L313.468,756.73L323.217,755.422Z" />
  <path id="11170" aria-label="구로구" d="M148.808,668.456L159.015,668.687L166,677.673L176.143,685.754L186.022,681.202L184.676,676.628L195.877,676.219L196.844,669.251L205.05,666.886L208.346,663.058L214.913,661.684L221.214,665.652L227.268,663.556L231.854,673.215L237.391,673.218L239.056,677.471L245.393,676.56L252.778,678.685L260.384,677.014L263.306,667.772L275.017,650.697L277.404,643.316L303.208,658.774L311.229,670.87L310.166,683.747L310.907,702.77L317.499,725.471L326.878,735.63L333.269,737.542L324.43,751.3L323.217,755.422L313.468,756.73L299.991,753.435L292.615,744.737L280.192,734.631L275.586,732.795L266.277,736.37L272.007,728.784L269.206,725.49L261.988,727.619L261.968,722.562L249.859,711.486L242.936,718.813L234.558,723.198L226.206,734.837L220.091,736.892L216.881,743.763L212.536,747.486L201.162,746.206L198.579,749.456L197.595,769.29L183.287,765.05L173.891,766.188L165.268,759.508L159.357,763.44L148.148,762.836L142.489,764.893L136.857,758.286L137.49,747.279L135.906,739.961L137.537,735.124L145.76,729.268L143.964,722.745L132.466,717.989L124.39,713.018L120.415,704.404L121.296,698.857L127.253,700.296L134.577,696.743L137.439,689.127L141.28,686.928L144.496,675.759L143.662,670.019Z" />
  <path id="11160" aria-label="강서구" d="M226.321,471.656L225.526,482.25L227.852,486.557L246.386,497.623L273.677,521.32L301.585,544.259L291.051,555.735L293.145,563.765L290.772,563.784L280.323,551.086L264.576,553.884L256.776,551.734L241.684,540.647L236.726,561L240.382,571.553L239.636,584.43L241.04,604.683L205.49,610.319L185.71,614.357L171.56,584.896L172.995,581.15L168.435,568.968L162.104,569.234L160.651,561.785L156.545,558.386L153.552,568.817L142.582,572.415L124.965,572.537L114.896,569.657L112.487,565.133L98.359,565.865L89.954,573.113L87.732,580.869L78.271,586.801L75.767,576.09L78.389,570.108L71.218,569.03L71.158,563.035L63.853,561.229L59.26,555.639L43.225,555.899L32.828,547.998L22.673,548.594L14.503,534.925L8,528.101L16.799,527.665L18.456,523.587L35.717,509.194L35.953,502.767L30.829,493.329L38.243,494.21L44.487,490.884L49.66,484.684L47.931,479.933L50.244,474.446L66.137,463.115L74.776,463.753L74.387,454.58L75.859,446.874L80.87,446.385L87.739,431.35L92.399,429.025L88.691,422.545L89.117,417.413L84.802,408.99L83.491,400.877L86.688,393.238L90.261,392.439L91.907,384.215L94.852,382.598L103.443,385.447L128.264,413.143L138.54,423.599L153.587,430.964L210.298,468.757Z" />
  <path id="11150" aria-label="양천구" d="M142.582,572.415L153.552,568.817L156.545,558.386L160.651,561.785L162.104,569.234L168.435,568.968L172.995,581.15L171.56,584.896L185.71,614.357L205.49,610.319L241.04,604.683L239.636,584.43L240.382,571.553L236.726,561L241.684,540.647L256.776,551.734L264.576,553.884L280.323,551.086L290.772,563.784L293.145,563.765L295.794,564.346L305.219,586.798L305.749,594.78L302.265,602.963L298.592,601.951L295.003,608.072L282.727,614.986L279.843,618.245L278.226,627.234L277.404,643.316L275.017,650.697L263.306,667.772L260.384,677.014L252.778,678.685L245.393,676.56L239.056,677.471L237.391,673.218L231.854,673.215L227.268,663.556L221.214,665.652L214.913,661.684L208.346,663.058L205.05,666.886L196.844,669.251L195.877,676.219L184.676,676.628L186.022,681.202L176.143,685.754L166,677.673L159.015,668.687L148.808,668.456L146.968,661.558L148.273,653.852L145.082,645.049L150.579,634.56L149.929,625.36L157.43,613.866L154.702,605.259L150.724,604.499L141.797,589.871Z" />
  <path id="11140" aria-label="마포구" d="M333.036,464.982L329.462,469.225L336.92,475.365L372.237,495.183L386.092,499.403L392.114,505.183L388.519,512.138L388.301,518.57L412.43,529.618L422.22,525.655L459.901,522.583L463.755,525.013L470.282,518.505L474.079,525.716L470.798,528.92L472.407,540.309L476.066,545.682L471.308,548.791L467.298,555.715L463.264,558.235L460.128,569.158L446.355,585.422L431.707,589.455L428.153,605.816L407.308,585.567L394.426,583.467L340.259,568.484L327.37,562.167L301.585,544.259L273.677,521.32L246.386,497.623L227.852,486.557L225.526,482.25L226.321,471.656L226.539,468.753L235.66,468.055L239.874,465.699L244.713,469.15L250.4,463.495L256.847,462.432L268.943,456.958L271.818,448.39L270.817,443.528L276.246,436.226L279.319,427.147L283.915,423.301L300.771,441.461L309.761,449.187L314.611,451.417L321.313,460.801L329.535,467.87Z" />
  <path id="11130" aria-label="서대문구" d="M444.162,373.012L449.65,376.779L451.608,382.688L449.742,395.194L452.902,400.701L460.081,401.615L458.161,410.797L462.857,421.681L463.006,426.094L459.035,441.834L466.038,448.353L456.904,453.596L451.638,459.096L482.403,497.503L489.354,509.13L483.025,511.228L475.283,517.152L470.282,518.505L463.755,525.013L459.901,522.583L422.22,525.655L412.43,529.618L388.301,518.57L388.519,512.138L392.114,505.183L386.092,499.403L372.237,495.183L336.92,475.365L329.462,469.225L333.036,464.982L355.204,437.886L363.735,439.25L362.9,446.428L378.237,443.805L381.819,434.361L387.004,434.479L391.819,430.875L391.224,424.705L393.777,417.882L404.841,407.089L421.35,400.345L423.269,387.076L425.442,382.08L431.322,382.091L436.455,373.08Z" />
  <path id="11120" aria-label="은평구" d="M494.514,300.544L488.554,306.667L465.718,311.836L459.158,321.091L448.383,322.702L447.593,332.362L445.004,340.299L441.76,343.791L444.208,348.52L445.589,360.604L442.762,370.274L444.162,373.012L436.455,373.08L431.322,382.091L425.442,382.08L423.269,387.076L421.35,400.345L404.841,407.089L393.777,417.882L391.224,424.705L391.819,430.875L387.004,434.479L381.819,434.361L378.237,443.805L362.9,446.428L363.735,439.25L355.204,437.886L333.036,464.982L329.535,467.87L321.313,460.801L314.611,451.417L309.761,449.187L300.771,441.461L283.915,423.301L290.547,414.813L295.738,414.853L291.443,422.85L295.724,430.252L305.451,430.664L309.772,428.562L318.536,430.174L325.309,426.476L323.305,418.189L330.087,411.042L328.31,404.309L329.186,398.276L326.295,387.034L330.584,385.057L330.085,366.704L327.886,358.493L333.662,340.579L337.729,339.252L342.76,331.345L340.818,325.068L346.198,318.684L347.031,312.028L341.043,299.834L351.216,289.883L349.734,281.59L353.226,274.614L354.987,264.896L343.665,258.813L345.283,255.409L358.343,263.65L375.691,261.129L385.467,255.524L393.64,248.034L406.803,246.261L412.803,242.195L420.678,228.242L428.274,223.705L436.939,221.397L437.928,225.95L446.219,233.225L453.566,232.284L459.188,240.06L461.219,250.389L467.118,252.916L471.834,267.225L477.191,268.506L487.547,281.547L487.411,287.946Z" />
  <path id="11110" aria-label="노원구" d="M809.486,334.552L799.601,337.611L795.593,342.643L786.997,345.63L770.533,337.556L762.777,336.246L751.702,339.82L728.8,350.007L720.812,350.184L714.115,354.39L706.718,353.725L688.36,336.507L678.431,323.869L673.506,316.505L658.428,303.534L664.201,297.125L666.737,286.937L678.849,263.364L690.074,275.371L692.322,259.9L688.558,245.17L688.096,230.884L682.123,216.464L681.58,207.375L675.696,191.209L676.43,179.244L679.617,166.484L682.981,144.531L680.291,137.935L689.352,131.208L694.519,130.367L705.652,132.735L714.005,129.538L724.073,116.107L732.359,115.835L742.767,110.109L753.17,110.129L759.108,117.164L763.687,128.151L784.185,131.56L787.321,141.749L778.885,154.097L776.837,161.217L781.031,168.839L783.046,178.023L785.619,180.174L786.438,187.877L782.183,199.611L787.466,212.69L786.061,219.648L763.933,231.587L779.239,233.437L782.126,239.613L777.938,248.162L783.714,261.118L791.661,262.409L797.354,260.702L814.937,263.856L824.169,277.01L825.182,291.806L821.887,305.57L808.436,316.497L808.4,321.499L804.305,328.404Z" />
  <path id="11100" aria-label="도봉구" d="M680.291,137.935L682.981,144.531L679.617,166.484L676.43,179.244L675.696,191.209L681.58,207.375L682.123,216.464L688.096,230.884L688.558,245.17L692.322,259.9L690.074,275.371L678.849,263.364L666.737,286.937L664.201,297.125L658.428,303.534L651.368,295.709L647.77,287.308L642.012,284.014L637.707,272.789L625.301,262.567L618.371,255.428L608.452,250.699L597.603,250.595L592.02,246.624L590.398,241.325L593.537,221.14L596.53,213.497L597.696,198.324L604.418,188.638L599.987,180.591L593.484,172.552L588.885,160.839L581.159,159.611L580.373,144.9L581.885,137.439L579.863,131.71L581.792,115.041L588.972,104.579L594.623,104.526L598.312,96.218L606.332,95.287L612.824,100.538L619.426,101.033L626.917,97.729L629.595,102.334L630.791,110.697L634.203,120.495L637.123,123.826L645.151,122.483L658.998,113.189L662,117.986L668.157,121.938L676.051,117.355Z" />
  <path id="11090" aria-label="강북구" d="M580.373,144.9L581.159,159.611L588.885,160.839L593.484,172.552L599.987,180.591L604.418,188.638L597.696,198.324L596.53,213.497L593.537,221.14L590.398,241.325L592.02,246.624L597.603,250.595L608.452,250.699L618.371,255.428L625.301,262.567L637.707,272.789L642.012,284.014L647.77,287.308L651.368,295.709L658.428,303.534L673.506,316.505L678.431,323.869L670.872,329.516L664.259,340.955L654.628,350.001L647.46,359.272L632.392,369.271L631.882,359.805L622.993,358.789L613.163,362.947L606.162,355.573L595.565,350.112L586.062,347.585L580.866,341.384L578.522,334.007L579.392,325.417L560.868,319.879L552.807,310.042L546.863,307.371L544.863,301.309L540.336,301.364L527.011,291.161L524.711,287.834L528.327,277.023L521.521,266.968L525.508,259.849L522.54,248.57L516.563,241.217L512.995,233.422L513.724,228.374L525.583,220.295L533.155,206.939L544.042,203.299L546.076,194.748L547.057,181.938L544.308,165.897L541.441,160.476L546.493,157.83L555.925,147.541L569.256,143.74Z" />
  <path id="11080" aria-label="성북구" d="M502.249,303.214L507.501,296.924L517.357,293.359L524.711,287.834L527.011,291.161L540.336,301.364L544.863,301.309L546.863,307.371L552.807,310.042L560.868,319.879L579.392,325.417L578.522,334.007L580.866,341.384L586.062,347.585L595.565,350.112L606.162,355.573L613.163,362.947L622.993,358.789L631.882,359.805L632.392,369.271L647.46,359.272L654.628,350.001L664.259,340.955L670.872,329.516L678.431,323.869L688.36,336.507L706.718,353.725L714.115,354.39L720.812,350.184L728.8,350.007L729.54,376.181L726.601,368.689L722.179,368.727L722.523,376.004L714.736,380.025L707.014,381.155L700.006,393.362L695.813,391.84L683.236,396.542L679.105,393.121L672.929,407.421L664.41,407.361L656.352,410.685L652.739,422.314L646.45,426.311L629.334,448.713L615.356,461.573L612.263,459.134L603.877,460.013L599.416,450.293L595.408,449.153L581.662,454.417L577.43,449.592L577.011,440.011L574.823,435.254L566.585,428.88L563.084,418.981L550.611,419.436L547.645,422.384L540.598,422.048L529.071,418.643L522.929,414.654L518.562,408.739L517.516,398.942L525.376,398.066L532.038,392.792L527.709,375.217L530.2,365.008L529.582,352.809L520.431,346.841L515.879,328.852L511.971,323.45L512.713,309.699L506.005,310.76Z" />
  <path id="11070" aria-label="중랑구" d="M728.8,350.007L751.702,339.82L762.777,336.246L770.533,337.556L786.997,345.63L795.593,342.643L799.601,337.611L809.486,334.552L822.727,335.082L836.155,343.583L835.243,348.358L837.417,361.649L835.209,369.977L839.135,373.801L838.415,382.814L828.586,396.51L829.106,399.354L839.254,411.205L837.975,414.197L827.473,416.223L820.815,428.446L817.994,441.921L799.448,444.453L802.566,450.532L802.338,460.798L798.53,468.44L798.243,474.873L794.85,477.931L775.276,486.744L757.067,481.402L745.668,479.915L744.753,461.651L741.995,451.75L728.239,429.797L724.134,407.661L725.623,401.835L731.295,393.103L731.852,388.111L729.54,376.181Z" />
  <path id="11060" aria-label="동대문구" d="M615.356,461.573L629.334,448.713L646.45,426.311L652.739,422.314L656.352,410.685L664.41,407.361L672.929,407.421L679.105,393.121L683.236,396.542L695.813,391.84L700.006,393.362L707.014,381.155L714.736,380.025L722.523,376.004L722.179,368.727L726.601,368.689L729.54,376.181L731.852,388.111L731.295,393.103L725.623,401.835L724.134,407.661L728.239,429.797L741.995,451.75L744.753,461.651L745.668,479.915L730.442,514.971L727.3,513.404L700.59,508.501L697.754,507.036L673.638,484.325L660.071,476.472L650.069,476.835L637.833,484.408L630.763,485.656L615.827,480.273Z" />
  <path id="11050" aria-label="광진구" d="M745.668,479.915L757.067,481.402L775.276,486.744L794.85,477.931L798.243,474.873L805.838,482.702L803.914,486.477L800.664,508.026L798.75,515.038L820.978,515.636L826.825,514.124L828.738,519.264L828.721,534.894L824.446,552.054L818.548,564.143L802.474,592.217L793.148,611.083L777.829,613.624L759.094,620.639L743.325,623.146L732.211,622.738L718.352,618.679L693.904,606.758L718.099,553.194L734.196,516.769L730.442,514.971Z" />
  <path id="11040" aria-label="성동구" d="M615.827,480.273L630.763,485.656L637.833,484.408L650.069,476.835L660.071,476.472L673.638,484.325L697.754,507.036L700.59,508.501L727.3,513.404L730.442,514.971L734.196,516.769L718.099,553.194L693.904,606.758L676.246,596.524L671.245,591.619L668.963,596.669L631.087,577.802L619.327,581.41L610.079,588.909L595.65,577.692L583.143,575.689L580.475,568.918L581.108,562.629L583.488,550.552L588.285,549.186L600.356,534.759L601.817,527.023L607.068,522.424L614.625,521.43L616.576,511.693L622.64,506.223L623.676,500.301L616.408,499.769Z" />
  <path id="11030" aria-label="용산구" d="M581.108,562.629L580.475,568.918L583.143,575.689L595.65,577.692L610.079,588.909L588.78,610.494L579.962,619.448L575.162,629.075L569.643,634.614L556.205,643.518L535.888,655.367L531.19,652.482L519.675,653L514.154,657.116L477.617,655.157L460.689,647.688L451.319,641.044L444.22,633.665L438.431,623.122L435.535,612.839L428.153,605.816L431.707,589.455L446.355,585.422L460.128,569.158L463.264,558.235L467.298,555.715L471.308,548.791L476.066,545.682L472.407,540.309L480.269,532.553L495.42,533.236L505.576,535.472L507.138,529.991L515.074,534.674L522.635,535.765L526.599,533.657L532.202,540.344L538.017,540.534L549.862,552.966L557.391,544.975L567.181,545.955L570.805,543.657L572.257,556.095L577.937,563.13Z" />
  <path id="11020" aria-label="중구" d="M615.827,480.273L616.408,499.769L623.676,500.301L622.64,506.223L616.576,511.693L614.625,521.43L607.068,522.424L601.817,527.023L600.356,534.759L588.285,549.186L583.488,550.552L581.108,562.629L577.937,563.13L572.257,556.095L570.805,543.657L567.181,545.955L557.391,544.975L549.862,552.966L538.017,540.534L532.202,540.344L526.599,533.657L522.635,535.765L515.074,534.674L507.138,529.991L505.576,535.472L495.42,533.236L480.269,532.553L472.407,540.309L470.798,528.92L474.079,525.716L470.282,518.505L475.283,517.152L483.025,511.228L489.354,509.13L482.403,497.503L488.074,490.791L497.149,487.799L508.663,487.66L534.776,491.047L553.099,489.263L564.684,486.647L597.941,486.001L608.856,480.315Z" />
  <path id="11010" aria-label="종로구" d="M494.514,300.544L502.249,303.214L506.005,310.76L512.713,309.699L511.971,323.45L515.879,328.852L520.431,346.841L529.582,352.809L530.2,365.008L527.709,375.217L532.038,392.792L525.376,398.066L517.516,398.942L518.562,408.739L522.929,414.654L529.071,418.643L540.598,422.048L547.645,422.384L550.611,419.436L563.084,418.981L566.585,428.88L574.823,435.254L577.011,440.011L577.43,449.592L581.662,454.417L595.408,449.153L599.416,450.293L603.877,460.013L612.263,459.134L615.356,461.573L615.827,480.273L608.856,480.315L597.941,486.001L564.684,486.647L553.099,489.263L534.776,491.047L508.663,487.66L497.149,487.799L488.074,490.791L482.403,497.503L451.638,459.096L456.904,453.596L466.038,448.353L459.035,441.834L463.006,426.094L462.857,421.681L458.161,410.797L460.081,401.615L452.902,400.701L449.742,395.194L451.608,382.688L449.65,376.779L444.162,373.012L442.762,370.274L445.589,360.604L444.208,348.52L441.76,343.791L445.004,340.299L447.593,332.362L448.383,322.702L459.158,321.091L465.718,311.836L488.554,306.667Z" />
</svg>
