<svg width="1600" height="900" viewBox="0 0 1600 900" xmlns="http://www.w3.org/2000/svg">
  <defs>
    <linearGradient id="bg2" x1="0" y1="0" x2="1" y2="1">
      <stop offset="0" stop-color="#102F4D"/>
      <stop offset="1" stop-color="#0B2138"/>
    </linearGradient>
  </defs>
  <rect width="1600" height="900" fill="url(#bg2)"/>
  <g stroke="#7CBDEB" stroke-opacity="0.26" fill="none">
    <path d="M0 150H1600M0 300H1600M0 450H1600M0 600H1600M0 750H1600"/>
    <path d="M160 0V900M320 0V900M480 0V900M640 0V900M800 0V900M960 0V900M1120 0V900M1280 0V900M1440 0V900"/>
  </g>
  <rect x="560" y="120" width="480" height="110" fill="#0C2944" stroke="#D7B65A" stroke-opacity="0.8"/>
  <rect x="560" y="300" width="480" height="110" fill="#0C2944" stroke="#8BC4EC" stroke-opacity="0.8"/>
  <path d="M800 230V300" stroke="#D7B65A" stroke-width="5"/>
  <path d="M800 410V510" stroke="#8BC4EC" stroke-width="4"/>
  <rect x="250" y="510" width="300" height="200" fill="#0A1F33" stroke="#8BC4EC" stroke-opacity="0.55"/>
  <rect x="650" y="510" width="300" height="200" fill="#0A1F33" stroke="#8BC4EC" stroke-opacity="0.55"/>
  <rect x="1050" y="510" width="300" height="200" fill="#0A1F33" stroke="#8BC4EC" stroke-opacity="0.55"/>
</svg>
