<svg width="1600" height="900" viewBox="0 0 1600 900" xmlns="http://www.w3.org/2000/svg">
  <defs>
    <linearGradient id="bg3" x1="0" y1="0" x2="0" y2="1">
      <stop offset="0" stop-color="#123656"/>
      <stop offset="1" stop-color="#0D2742"/>
    </linearGradient>
    <linearGradient id="gold3" x1="0" y1="0" x2="1" y2="1">
      <stop offset="0" stop-color="#D7B65A"/>
      <stop offset="1" stop-color="#AD8A30"/>
    </linearGradient>
  </defs>
  <rect width="1600" height="900" fill="url(#bg3)"/>
  <g opacity="0.35" stroke="#78B9E9" fill="none">
    <path d="M0 220H1600M0 440H1600M0 660H1600"/>
    <path d="M260 0V900M520 0V900M780 0V900M1040 0V900M1300 0V900"/>
  </g>
  <polygon points="300,300 510,300 615,480 510,660 300,660 195,480" fill="#0B2238" stroke="url(#gold3)" stroke-opacity="0.8" stroke-width="4"/>
  <polygon points="695,300 905,300 1010,480 905,660 695,660 590,480" fill="#0B2238" stroke="url(#gold3)" stroke-opacity="0.8" stroke-width="4"/>
  <polygon points="1090,300 1300,300 1405,480 1300,660 1090,660 985,480" fill="#0B2238" stroke="url(#gold3)" stroke-opacity="0.8" stroke-width="4"/>
  <path d="M615 480H985" stroke="#D7B65A" stroke-width="4"/>
</svg>
